<?xml version="1.0" encoding="iso-8859-1"?>
<!-- Generator: Adobe Illustrator 19.0.0, SVG Export Plug-In . SVG Version: 6.00 Build 0)  -->
<svg version="1.1" id="Layer_1" xmlns="http://www.w3.org/2000/svg" xmlns:xlink="http://www.w3.org/1999/xlink" x="0px" y="0px"
	 viewBox="0 0 512 512" style="enable-background:new 0 0 512 512;" xml:space="preserve">
<g>
	<g>
		<path d="M503.037,116.9H143.412c-4.95,0-8.963,4.013-8.963,8.963v260.273c0,4.95,4.013,8.963,8.963,8.963h280.663
			c4.95,0,8.963-4.013,8.963-8.963c0-4.95-4.013-8.963-8.963-8.963H166.869l121.955-109.147l28.423,25.438
			c1.702,1.523,3.839,2.284,5.977,2.284c2.138,0,4.276-0.761,5.977-2.284l28.419-25.434l121.952,109.143h-25.619
			c-4.95,0-8.963,4.013-8.963,8.963c0,4.95,4.013,8.963,8.963,8.963h49.084c4.95,0,8.963-4.013,8.963-8.963V125.863
			C512,120.913,507.987,116.9,503.037,116.9z M323.224,274.757l-86.268-77.204c-3.688-3.301-9.355-2.988-12.656,0.702
			c-3.301,3.689-2.988,9.355,0.702,12.657l50.381,45.087L152.375,366.088V145.915l49.783,44.553c1.71,1.531,3.846,2.284,5.974,2.284
			c2.461,0,4.912-1.007,6.682-2.985c3.301-3.689,2.988-9.355-0.702-12.656l-47.245-42.281h312.713L323.224,274.757z
			 M494.074,366.094L371.062,256.001l123.011-110.088V366.094z"/>
	</g>
</g>
<g>
	<g>
		<path d="M102.775,148.446h-69.91c-4.95,0-8.963,4.013-8.963,8.963c0,4.95,4.013,8.963,8.963,8.963h69.91
			c4.95,0,8.963-4.013,8.963-8.963C111.738,152.459,107.725,148.446,102.775,148.446z"/>
	</g>
</g>
<g>
	<g>
		<path d="M108.75,273.925H44.816c-4.95,0-8.963,4.013-8.963,8.963c0,4.95,4.013,8.963,8.963,8.963h63.934
			c4.95,0,8.963-4.013,8.963-8.963C117.714,277.938,113.7,273.925,108.75,273.925z"/>
	</g>
</g>
<g>
	<g>
		<path d="M84.848,220.148H8.963c-4.95,0-8.963,4.013-8.963,8.963s4.013,8.963,8.963,8.963h75.885c4.95,0,8.963-4.013,8.963-8.963
			S89.798,220.148,84.848,220.148z"/>
	</g>
</g>
<g>
	<g>
		<path d="M84.848,345.628h-7.351c-4.95,0-8.963,4.013-8.963,8.963c0,4.95,4.013,8.963,8.963,8.963h7.351
			c4.95,0,8.963-4.013,8.963-8.963C93.812,349.641,89.798,345.628,84.848,345.628z"/>
	</g>
</g>
<g>
	<g>
		<path d="M47.62,345.628H8.963c-4.95,0-8.963,4.013-8.963,8.963c0,4.95,4.013,8.963,8.963,8.963H47.62
			c4.95,0,8.963-4.013,8.963-8.963C56.583,349.641,52.57,345.628,47.62,345.628z"/>
	</g>
</g>
<g>
</g>
<g>
</g>
<g>
</g>
<g>
</g>
<g>
</g>
<g>
</g>
<g>
</g>
<g>
</g>
<g>
</g>
<g>
</g>
<g>
</g>
<g>
</g>
<g>
</g>
<g>
</g>
<g>
</g>
</svg>
